<?xml version="1.0" encoding="utf-8"?>
<!-- Generator: Adobe Illustrator 16.0.4, SVG Export Plug-In . SVG Version: 6.00 Build 0)  -->
<!DOCTYPE svg PUBLIC "-//W3C//DTD SVG 1.1//EN" "http://www.w3.org/Graphics/SVG/1.1/DTD/svg11.dtd">
<svg version="1.1" id="Layer_1" xmlns="http://www.w3.org/2000/svg" xmlns:xlink="http://www.w3.org/1999/xlink" x="0px" y="0px"
	 width="512px" height="512px" viewBox="0 0 512 512" enable-background="new 0 0 512 512" xml:space="preserve">
<g>
	<path fill="#FFFFFF" d="M331.293,255.368h-44.62v64.556c-9.919,1.267-19.304,1.899-28.165,1.899
		c-19.833,0-29.747-10.019-29.747-30.063v-72.468c0-9.069,2.162-16.14,6.488-21.203c4.321-5.063,12.075-7.595,23.259-7.595
		c19.408,0,39.978,1.691,61.709,5.064l5.696-41.456c-22.997-4.431-45.466-6.646-67.405-6.646c-25.107,0-44.253,5.75-57.437,17.247
		c-13.187,11.501-19.778,27.27-19.778,47.31v87.974c0,19.621,6.646,35.285,19.937,46.994c13.292,11.709,32.383,17.563,57.278,17.563
		c25.104,0,49.367-3.373,72.785-10.127V255.368z"/>
</g>
</svg>
